<svg width="708" height="90" viewBox="0 0 708 90" fill="none" xmlns="http://www.w3.org/2000/svg">
<g filter="url(#filter0_i_31_3)">
<path d="M25.3065 90L0.0905137 0.399994H12.3785L36.4425 85.904L59.4825 0.399994H62.1705L85.4665 85.904L109.531 0.399994H121.307L96.2185 90H83.8025L60.7625 5.13599L38.1065 90H25.3065ZM119.455 90V0.399994H174.111V10.64H130.847V43.92H161.951V46.48H130.847V79.76H179.103V90H119.455ZM163.264 90L199.616 0.399994H214.592L250.944 90H238.784L227.52 62.352H186.432L175.168 90H163.264ZM187.456 59.92H226.496L207.04 12.432L187.456 59.92ZM261.838 90V11.536H227.15V0.399994H307.918V11.536H273.358V90H261.838ZM304.425 90V0.399994H315.945V43.92H367.401V0.399994H378.921V90H367.401V46.48H315.945V90H304.425ZM387.665 90V0.399994H442.321V10.64H399.057V43.92H430.161V46.48H399.057V79.76H447.313V90H387.665ZM445.905 90V0.399994H474.705C485.371 0.399994 493.734 2.70399 499.793 7.312C505.937 11.8347 509.009 18.064 509.009 26C509.009 32.4853 507.003 37.8613 502.993 42.128C498.982 46.3947 493.393 49.168 486.225 50.448L517.201 90H504.017L473.809 51.472C473.382 51.5573 472.913 51.6 472.401 51.6C471.974 51.6 471.547 51.6 471.121 51.6H457.297V90H445.905ZM473.553 49.04C480.977 49.04 486.822 47.3333 491.089 43.92C495.355 40.4213 497.489 35.728 497.489 29.84C497.489 23.8667 495.355 19.1733 491.089 15.76C486.822 12.3467 480.977 10.64 473.553 10.64H457.297V49.04H473.553ZM499.339 90L535.691 0.399994H550.667L587.019 90H574.859L563.595 62.352H522.507L511.243 90H499.339ZM523.531 59.92H562.571L543.115 12.432L523.531 59.92ZM582.634 90V0.399994H611.434C622.101 0.399994 630.464 2.70399 636.522 7.312C642.666 11.8347 645.738 18.064 645.738 26C645.738 33.936 642.794 40.208 636.906 44.816C631.018 49.3387 622.954 51.6 612.714 51.6H594.154V90H582.634ZM610.282 49.04C617.706 49.04 623.552 47.3333 627.818 43.92C632.085 40.4213 634.218 35.728 634.218 29.84C634.218 23.8667 632.085 19.1733 627.818 15.76C623.552 12.3467 617.706 10.64 610.282 10.64H594.154V49.04H610.282ZM644.124 90V0.399994H672.924C683.591 0.399994 691.954 2.70399 698.012 7.312C704.156 11.8347 707.228 18.064 707.228 26C707.228 33.936 704.284 40.208 698.396 44.816C692.508 49.3387 684.444 51.6 674.204 51.6H655.644V90H644.124ZM671.772 49.04C679.196 49.04 685.042 47.3333 689.308 43.92C693.575 40.4213 695.708 35.728 695.708 29.84C695.708 23.8667 693.575 19.1733 689.308 15.76C685.042 12.3467 679.196 10.64 671.772 10.64H655.644V49.04H671.772Z" fill="white" fill-opacity="0.87"/>
</g>
<defs>
<filter id="filter0_i_31_3" x="0.0905762" y="0.400391" width="707.138" height="91.5996" filterUnits="userSpaceOnUse" color-interpolation-filters="sRGB">
<feFlood flood-opacity="0" result="BackgroundImageFix"/>
<feBlend mode="normal" in="SourceGraphic" in2="BackgroundImageFix" result="shape"/>
<feColorMatrix in="SourceAlpha" type="matrix" values="0 0 0 0 0 0 0 0 0 0 0 0 0 0 0 0 0 0 127 0" result="hardAlpha"/>
<feOffset dy="2"/>
<feGaussianBlur stdDeviation="2"/>
<feComposite in2="hardAlpha" operator="arithmetic" k2="-1" k3="1"/>
<feColorMatrix type="matrix" values="0 0 0 0 1 0 0 0 0 1 0 0 0 0 1 0 0 0 0.25 0"/>
<feBlend mode="normal" in2="shape" result="effect1_innerShadow_31_3"/>
</filter>
</defs>
</svg>
